HIERARCHY
ROOT Hips
{
	OFFSET 0.000000 0.000000 0.000000 
	CHANNELS 6 Xposition Yposition Zposition Zrotation Xrotation Yrotation
	JOINT Spine
	{
		OFFSET -0.000000 8.339920 0.000000 
		CHANNELS 3 Zrotation Xrotation Yrotation
		JOINT Spine1
		{
			OFFSET -0.000000 25.214485 0.000000 
			CHANNELS 3 Zrotation Xrotation Yrotation
			JOINT Neck
			{
				OFFSET -0.000000 25.110935 2.282812 
				CHANNELS 3 Zrotation Xrotation Yrotation
				JOINT Head
				{
					OFFSET -0.000000 14.238888 -2.034127 
					CHANNELS 3 Zrotation Xrotation Yrotation
					End Site
					{
						OFFSET -0.000000 25.426584 0.000000 
					}
				}
			}
			JOINT LeftShoulder
			{
				OFFSET 4.025024 23.158985 -0.185822 
				CHANNELS 3 Zrotation Xrotation Yrotation
				JOINT LeftArm
				{
					OFFSET 11.674057 0.000000 0.000000 
					CHANNELS 3 Zrotation Xrotation Yrotation
					JOINT LeftForeArm
					{
						OFFSET 31.688633 0.000000 0.000000 
						CHANNELS 3 Zrotation Xrotation Yrotation
						JOINT LeftHand
						{
							OFFSET 29.704493 0.000000 0.000000 
							CHANNELS 3 Zrotation Xrotation Yrotation
							End Site
							{
								OFFSET 15.255952 0.000000 0.000000 
							}
						}
					}
				}
			}
			JOINT RightShoulder
			{
				OFFSET -4.099539 23.158985 -0.185822 
				CHANNELS 3 Zrotation Xrotation Yrotation
				JOINT RightArm
				{
					OFFSET -11.674057 0.000000 0.000000 
					CHANNELS 3 Zrotation Xrotation Yrotation
					JOINT RightForeArm
					{
						OFFSET -31.688633 0.000000 0.000000 
						CHANNELS 3 Zrotation Xrotation Yrotation
						JOINT RightHand
						{
							OFFSET -29.704493 0.000000 0.000000 
							CHANNELS 3 Zrotation Xrotation Yrotation
							End Site
							{
								OFFSET -15.255952 0.000000 0.000000 
							}
						}
					}
				}
			}
		}
	}
	JOINT LeftUpLeg
	{
		OFFSET 10.170634 0.000000 0.000000 
		CHANNELS 3 Zrotation Xrotation Yrotation
		JOINT LeftLeg
		{
			OFFSET -0.000000 -41.352962 0.000000 
			CHANNELS 3 Zrotation Xrotation Yrotation
			JOINT LeftFoot
			{
				OFFSET -0.000000 -47.535004 0.000000 
				CHANNELS 3 Zrotation Xrotation Yrotation
				JOINT LeftToeBase
				{
					OFFSET -0.000000 -6.610912 15.255952 
					CHANNELS 3 Zrotation Xrotation Yrotation
					End Site
					{
						OFFSET -0.000000 0.000000 4.068254 
					}
				}
			}
		}
	}
	JOINT RightUpLeg
	{
		OFFSET -10.170634 0.000000 0.000000 
		CHANNELS 3 Zrotation Xrotation Yrotation
		JOINT RightLeg
		{
			OFFSET -0.000000 -41.352962 0.000000 
			CHANNELS 3 Zrotation Xrotation Yrotation
			JOINT RightFoot
			{
				OFFSET -0.000000 -47.535004 0.000000 
				CHANNELS 3 Zrotation Xrotation Yrotation
				JOINT RightToeBase
				{
					OFFSET -0.000000 -6.610912 15.255952 
					CHANNELS 3 Zrotation Xrotation Yrotation
					End Site
					{
						OFFSET -0.000000 0.000000 4.068254 
					}
				}
			}
		}
	}
}
MOTION
Frames: 11
Frame Time: 0.008333
-10.841486 37.496258 2.586819 -10.139378 0.395574 86.133713 4.741130 2.738392 1.302894 -9.981951 17.919949 2.994018 4.552453 11.687894 0.173436 4.208060 -24.906092 1.466615 14.828050 -4.859937 -19.060434 -40.473160 41.131371 -42.225391 30.428854 -24.472937 -38.487865 -33.206604 -14.323196 0.449936 -3.803602 -11.447787 13.605530 22.932495 54.950329 57.209175 -38.890636 -17.762306 35.988956 8.027140 -5.021775 -2.470226 107.516068 -72.804909 95.582405 -174.760620 38.929153 -167.479141 -30.443464 -40.563377 -38.075405 0.000000 0.000000 0.000000 -153.701889 -85.985115 -134.604660 163.421066 39.161079 -163.465149 8.016013 -56.923172 13.051723 0.000000 0.000000 0.000000 
-10.872576 37.512615 2.594196 -10.166689 0.404232 86.129440 4.729250 2.767437 1.306428 -10.006634 17.859562 2.996963 4.563537 11.684180 0.156758 4.348750 -24.912563 1.500638 14.768309 -4.857633 -19.011444 -40.484905 41.202343 -42.200642 30.520184 -24.569614 -38.557545 -33.431789 -14.289977 0.165437 -3.775674 -11.419502 13.598528 23.119360 54.930546 57.096169 -38.930222 -17.851654 36.054630 7.897179 -5.083405 -2.637322 107.638580 -72.822220 95.674072 -174.691605 38.951920 -167.677475 -30.307331 -40.646103 -37.816845 0.000000 0.000000 0.000000 -154.861847 -85.966675 -135.811310 163.441711 39.221447 -163.762375 8.262413 -56.883007 13.350547 0.000000 0.000000 0.000000 
-10.917267 37.516403 2.609493 -10.204467 0.391603 86.163704 4.744125 2.784311 1.298496 -10.042393 17.835384 2.993574 4.684758 11.630072 0.142025 4.310146 -24.909473 1.463678 14.790429 -4.881356 -18.988054 -40.597065 41.135490 -42.132835 30.590475 -24.515352 -38.679241 -33.904312 -14.084416 -0.125661 -3.779829 -11.430932 13.537573 23.172924 54.984951 57.127850 -38.996258 -17.985630 36.026863 7.670664 -5.199956 -2.562057 107.903946 -72.862526 95.903175 -174.659286 38.969078 -167.772400 -30.250622 -40.713840 -37.673084 0.000000 0.000000 0.000000 -155.597809 -85.937454 -136.565887 163.421432 39.236275 -163.558289 7.933123 -56.904793 12.908925 0.000000 0.000000 0.000000 
-10.957611 37.512554 2.623653 -10.243666 0.385512 86.185028 4.729512 2.805423 1.290275 -10.021412 17.772589 2.976937 4.636561 11.610932 0.125544 4.483321 -24.891798 1.508640 14.755537 -4.883844 -18.950176 -40.543198 41.342426 -42.132511 30.985922 -24.630007 -38.591591 -34.552914 -13.994271 -0.431262 -3.760500 -11.332705 13.533676 23.142635 54.942280 57.154335 -39.053364 -18.110458 36.038898 7.672567 -5.304213 -2.551837 108.167023 -72.875107 96.155540 -174.641617 38.984184 -167.826187 -30.214596 -40.756363 -37.567066 0.000000 0.000000 0.000000 -156.437531 -85.903030 -137.427444 163.419739 39.257614 -163.614563 7.983761 -56.898605 12.935551 0.000000 0.000000 0.000000 
-10.997532 37.498516 2.635113 -10.274969 0.385289 86.217491 4.727156 2.837581 1.288100 -10.049118 17.692265 2.973141 4.695197 11.598397 0.083839 4.542376 -24.840240 1.481687 14.747538 -4.845510 -18.944290 -40.543934 41.335739 -42.121796 31.029856 -24.659412 -38.713722 -34.647160 -13.972014 -0.430476 -3.740638 -11.358879 13.507403 23.249489 55.034107 57.072849 -39.145096 -18.223864 36.030598 7.982609 -5.398450 -2.539054 108.444275 -72.903030 96.423737 -174.605469 38.988956 -167.927521 -30.084684 -40.880871 -37.373466 0.000000 0.000000 0.000000 -156.996964 -85.866714 -137.993317 163.414703 39.269093 -163.666855 8.055697 -56.926029 12.973197 0.000000 0.000000 0.000000 
-11.039972 37.473660 2.657608 -10.291520 0.354770 86.278572 4.749906 2.896189 1.273599 -10.096422 17.584541 2.959357 4.801693 11.672024 0.084309 4.605448 -24.928064 1.506343 14.863986 -4.808139 -18.987436 -40.712040 41.283997 -42.041103 30.770317 -24.802021 -39.048332 -33.725792 -14.263820 0.049673 -3.636336 -11.297359 13.527182 23.289993 55.043991 56.948631 -39.141106 -18.389629 36.096390 7.965435 -5.545123 -2.508347 108.763283 -72.946991 96.724617 -174.614182 38.991486 -167.904312 -30.101254 -40.946148 -37.331005 0.000000 0.000000 0.000000 -157.104385 -85.834534 -138.085373 163.379471 39.235809 -163.622070 8.098430 -56.950893 12.971519 0.000000 0.000000 0.000000 
-11.072193 37.444462 2.669174 -10.302768 0.360427 86.300888 4.772599 2.970043 1.300852 -10.206791 17.457788 2.995869 4.991259 11.708337 0.055242 4.546110 -24.955965 1.450171 14.922956 -4.911587 -18.987165 -40.787670 41.435654 -41.989990 30.837990 -24.823120 -39.121449 -33.704407 -14.268224 0.149706 -3.513558 -11.236051 13.448381 23.290045 55.090206 56.867348 -39.137672 -18.584175 36.184769 7.956949 -5.711093 -2.447219 108.988144 -72.963387 96.954155 -174.622528 38.979767 -167.877441 -30.081200 -40.995239 -37.302612 0.000000 0.000000 0.000000 -157.583267 -85.795921 -138.565811 163.385223 39.225979 -163.645996 8.069934 -56.991627 12.924830 0.000000 0.000000 0.000000 
-11.107910 37.406612 2.673828 -10.313186 0.380645 86.320602 4.825356 3.035045 1.305678 -10.402558 17.336761 3.023803 5.126336 11.777740 0.052149 4.616626 -25.021065 1.471686 15.019370 -4.907023 -18.970938 -40.790352 41.473427 -42.001686 30.958115 -24.793423 -39.156136 -33.913883 -14.174360 0.126497 -3.317647 -11.196621 13.462805 23.393211 55.108124 56.642365 -39.087669 -18.754929 36.321861 7.923422 -5.849993 -2.390417 109.198868 -72.983215 97.175438 -174.618744 38.956715 -167.880249 -30.065256 -41.072483 -37.266670 0.000000 0.000000 0.000000 -157.955383 -85.744484 -138.925720 163.412903 39.208157 -163.665894 8.175973 -57.019707 12.978564 0.000000 0.000000 0.000000 
-11.133656 37.358780 2.690056 -10.300232 0.365649 86.349998 4.760561 3.081277 1.326217 -10.262834 17.272987 3.017237 5.101953 11.803977 0.023754 4.640176 -25.037180 1.453353 14.964767 -4.910502 -18.992950 -40.783546 41.482674 -42.003479 30.918346 -24.825165 -39.298191 -33.702923 -14.231194 0.302334 -3.436271 -11.177940 13.401872 23.580246 55.096836 56.485649 -39.031303 -18.900856 36.454845 7.894458 -5.968189 -2.348082 109.450287 -72.989670 97.440460 -174.669586 38.928833 -167.730545 -30.091135 -41.092522 -37.340118 0.000000 0.000000 0.000000 -158.132385 -85.723778 -139.099548 163.417068 39.185570 -163.683899 8.218245 -57.086018 13.035674 0.000000 0.000000 0.000000 
-11.168629 37.305744 2.698772 -10.306034 0.364785 86.381470 4.744529 3.121473 1.345996 -10.250568 17.207930 3.030418 5.160671 11.803262 0.009860 4.606828 -25.043863 1.425168 15.030920 -5.191305 -18.965620 -41.058449 41.706551 -41.840298 30.861620 -24.876507 -39.415119 -33.422333 -14.329975 0.505122 -3.443312 -11.213882 13.328842 23.534533 55.197426 56.457947 -39.022106 -19.086758 36.530743 7.883880 -6.135396 -2.326688 109.862801 -73.007378 97.856934 -174.703445 38.888969 -167.623581 -30.165672 -41.050373 -37.410599 0.000000 0.000000 0.000000 -158.269699 -85.671974 -139.211426 163.417633 39.152386 -163.686371 8.311044 -57.144783 13.105137 0.000000 0.000000 0.000000 
-11.199778 37.243534 2.707245 -10.314488 0.375822 86.397820 4.700923 3.139739 1.377457 -10.208166 17.162287 3.050786 5.205355 11.730762 0.015013 4.586214 -24.934788 1.413324 15.100133 -5.213672 -18.990927 -41.165234 41.677464 -41.816776 30.816696 -24.916332 -39.565483 -33.287170 -14.386194 0.654020 -3.463298 -11.261913 13.258465 24.020365 55.093807 55.992718 -38.821445 -19.118401 36.883141 7.878142 -6.104724 -2.326632 110.152245 -72.996185 98.182312 -174.747681 38.844952 -167.486267 -30.180706 -41.106979 -37.477215 0.000000 0.000000 0.000000 -158.643677 -85.607910 -139.566422 163.443848 39.104755 -163.732971 8.441664 -57.213737 13.217529 0.000000 0.000000 0.000000 
